<mxfile host="app.diagrams.net" agent="Mozilla/5.0 (Windows NT 10.0; Win64; x64) AppleWebKit/537.36 (KHTML, like Gecko) Chrome/138.0.0.0 Safari/537.36 Edg/138.0.0.0" version="28.0.7">
  <diagram name="Pagina-1" id="s_C4wgijjV4xvSXDl1lG">
    <mxGraphModel dx="1961" dy="614" grid="1" gridSize="10" guides="1" tooltips="1" connect="1" arrows="1" fold="1" page="1" pageScale="1" pageWidth="827" pageHeight="1169" math="0" shadow="0">
      <root>
        <mxCell id="0" />
        <mxCell id="1" parent="0" />
        <mxCell id="diJnBNYQxWLbvn7wu5tV-73" value="" style="rounded=1;whiteSpace=wrap;html=1;fillColor=none;dashed=1;dashPattern=8 8;" parent="1" vertex="1">
          <mxGeometry x="-10" y="40" width="650" height="203" as="geometry" />
        </mxCell>
        <mxCell id="diJnBNYQxWLbvn7wu5tV-1" value="" style="rounded=0;whiteSpace=wrap;html=1;" parent="1" vertex="1">
          <mxGeometry x="120" y="150" width="80" height="60" as="geometry" />
        </mxCell>
        <mxCell id="diJnBNYQxWLbvn7wu5tV-2" value="&lt;font style=&quot;font-size: 20px;&quot;&gt;μ&lt;/font&gt;&lt;font style=&quot;font-size: 10px;&quot;&gt;1&lt;/font&gt;" style="ellipse;whiteSpace=wrap;html=1;aspect=fixed;" parent="1" vertex="1">
          <mxGeometry x="200" y="145" width="70" height="70" as="geometry" />
        </mxCell>
        <mxCell id="diJnBNYQxWLbvn7wu5tV-5" value="" style="rounded=0;whiteSpace=wrap;html=1;" parent="1" vertex="1">
          <mxGeometry x="120" y="150" width="80" height="10" as="geometry" />
        </mxCell>
        <mxCell id="diJnBNYQxWLbvn7wu5tV-6" value="" style="rounded=0;whiteSpace=wrap;html=1;" parent="1" vertex="1">
          <mxGeometry x="120" y="160" width="80" height="10" as="geometry" />
        </mxCell>
        <mxCell id="diJnBNYQxWLbvn7wu5tV-7" value="" style="rounded=0;whiteSpace=wrap;html=1;" parent="1" vertex="1">
          <mxGeometry x="120" y="170" width="80" height="10" as="geometry" />
        </mxCell>
        <mxCell id="diJnBNYQxWLbvn7wu5tV-8" value="" style="rounded=0;whiteSpace=wrap;html=1;" parent="1" vertex="1">
          <mxGeometry x="120" y="180" width="80" height="10" as="geometry" />
        </mxCell>
        <mxCell id="diJnBNYQxWLbvn7wu5tV-9" value="" style="rounded=0;whiteSpace=wrap;html=1;" parent="1" vertex="1">
          <mxGeometry x="120" y="190" width="80" height="10" as="geometry" />
        </mxCell>
        <mxCell id="diJnBNYQxWLbvn7wu5tV-10" value="" style="rounded=0;whiteSpace=wrap;html=1;" parent="1" vertex="1">
          <mxGeometry x="382.5" y="150" width="80" height="60" as="geometry" />
        </mxCell>
        <mxCell id="diJnBNYQxWLbvn7wu5tV-30" style="edgeStyle=orthogonalEdgeStyle;rounded=0;orthogonalLoop=1;jettySize=auto;html=1;exitX=1;exitY=0.5;exitDx=0;exitDy=0;entryX=0;entryY=0;entryDx=0;entryDy=0;" parent="1" source="diJnBNYQxWLbvn7wu5tV-11" target="diJnBNYQxWLbvn7wu5tV-8" edge="1">
          <mxGeometry relative="1" as="geometry">
            <Array as="points">
              <mxPoint x="600" y="180" />
              <mxPoint x="600" y="80" />
              <mxPoint x="80" y="80" />
              <mxPoint x="80" y="180" />
            </Array>
          </mxGeometry>
        </mxCell>
        <mxCell id="diJnBNYQxWLbvn7wu5tV-11" value="&lt;font style=&quot;font-size: 20px;&quot;&gt;μ&lt;/font&gt;&lt;font style=&quot;font-size: 10px;&quot;&gt;2&lt;/font&gt;" style="ellipse;whiteSpace=wrap;html=1;aspect=fixed;" parent="1" vertex="1">
          <mxGeometry x="462.5" y="145" width="70" height="70" as="geometry" />
        </mxCell>
        <mxCell id="diJnBNYQxWLbvn7wu5tV-17" value="" style="rounded=0;whiteSpace=wrap;html=1;" parent="1" vertex="1">
          <mxGeometry x="452.5" y="150" width="10" height="60" as="geometry" />
        </mxCell>
        <mxCell id="diJnBNYQxWLbvn7wu5tV-18" value="" style="rounded=0;whiteSpace=wrap;html=1;" parent="1" vertex="1">
          <mxGeometry x="442.5" y="150" width="10" height="60" as="geometry" />
        </mxCell>
        <mxCell id="diJnBNYQxWLbvn7wu5tV-19" value="" style="rounded=0;whiteSpace=wrap;html=1;" parent="1" vertex="1">
          <mxGeometry x="432.5" y="150" width="10" height="60" as="geometry" />
        </mxCell>
        <mxCell id="diJnBNYQxWLbvn7wu5tV-20" value="" style="rounded=0;whiteSpace=wrap;html=1;" parent="1" vertex="1">
          <mxGeometry x="422.5" y="150" width="10" height="60" as="geometry" />
        </mxCell>
        <mxCell id="diJnBNYQxWLbvn7wu5tV-23" value="" style="rounded=0;whiteSpace=wrap;html=1;" parent="1" vertex="1">
          <mxGeometry x="412.5" y="150" width="10" height="60" as="geometry" />
        </mxCell>
        <mxCell id="diJnBNYQxWLbvn7wu5tV-24" value="" style="rounded=0;whiteSpace=wrap;html=1;" parent="1" vertex="1">
          <mxGeometry x="402.5" y="150" width="10" height="60" as="geometry" />
        </mxCell>
        <mxCell id="diJnBNYQxWLbvn7wu5tV-25" value="" style="rounded=0;whiteSpace=wrap;html=1;" parent="1" vertex="1">
          <mxGeometry x="392.5" y="150" width="10" height="60" as="geometry" />
        </mxCell>
        <mxCell id="diJnBNYQxWLbvn7wu5tV-26" value="" style="endArrow=classic;html=1;rounded=0;exitX=1;exitY=0.5;exitDx=0;exitDy=0;entryX=0;entryY=0.5;entryDx=0;entryDy=0;" parent="1" source="diJnBNYQxWLbvn7wu5tV-2" edge="1" target="diJnBNYQxWLbvn7wu5tV-10">
          <mxGeometry width="50" height="50" relative="1" as="geometry">
            <mxPoint x="390" y="410" as="sourcePoint" />
            <mxPoint x="350" y="180" as="targetPoint" />
          </mxGeometry>
        </mxCell>
        <mxCell id="diJnBNYQxWLbvn7wu5tV-31" value="" style="endArrow=none;html=1;rounded=0;" parent="1" edge="1">
          <mxGeometry width="50" height="50" relative="1" as="geometry">
            <mxPoint x="10" y="180" as="sourcePoint" />
            <mxPoint x="80" y="180" as="targetPoint" />
          </mxGeometry>
        </mxCell>
        <mxCell id="diJnBNYQxWLbvn7wu5tV-32" value="" style="endArrow=classic;html=1;rounded=0;" parent="1" edge="1">
          <mxGeometry width="50" height="50" relative="1" as="geometry">
            <mxPoint x="300" y="180" as="sourcePoint" />
            <mxPoint x="300" y="260" as="targetPoint" />
          </mxGeometry>
        </mxCell>
        <mxCell id="diJnBNYQxWLbvn7wu5tV-33" value="&lt;font style=&quot;font-size: 17px;&quot;&gt;P&lt;/font&gt;&lt;font size=&quot;1&quot; style=&quot;&quot;&gt;c&lt;/font&gt;" style="text;html=1;align=center;verticalAlign=middle;resizable=0;points=[];autosize=1;strokeColor=none;fillColor=none;" parent="1" vertex="1">
          <mxGeometry x="300" y="150" width="40" height="30" as="geometry" />
        </mxCell>
        <mxCell id="diJnBNYQxWLbvn7wu5tV-35" value="&lt;span style=&quot;font-size: 14px;&quot;&gt;Edge node&lt;/span&gt;" style="text;html=1;align=center;verticalAlign=middle;resizable=0;points=[];autosize=1;strokeColor=none;fillColor=none;" parent="1" vertex="1">
          <mxGeometry x="195" y="108" width="90" height="30" as="geometry" />
        </mxCell>
        <mxCell id="diJnBNYQxWLbvn7wu5tV-36" value="&lt;font style=&quot;font-size: 14px;&quot;&gt;Cloud VM&lt;/font&gt;" style="text;html=1;align=center;verticalAlign=middle;resizable=0;points=[];autosize=1;strokeColor=none;fillColor=none;" parent="1" vertex="1">
          <mxGeometry x="457.5" y="108" width="80" height="30" as="geometry" />
        </mxCell>
        <mxCell id="diJnBNYQxWLbvn7wu5tV-38" value="" style="endArrow=none;html=1;rounded=0;" parent="1" edge="1">
          <mxGeometry width="50" height="50" relative="1" as="geometry">
            <mxPoint x="10" y="280" as="sourcePoint" />
            <mxPoint x="10" y="180" as="targetPoint" />
          </mxGeometry>
        </mxCell>
        <mxCell id="diJnBNYQxWLbvn7wu5tV-39" value="" style="endArrow=none;html=1;rounded=0;" parent="1" edge="1">
          <mxGeometry width="50" height="50" relative="1" as="geometry">
            <mxPoint x="-80" y="280" as="sourcePoint" />
            <mxPoint x="10" y="280" as="targetPoint" />
          </mxGeometry>
        </mxCell>
        <mxCell id="diJnBNYQxWLbvn7wu5tV-40" value="" style="rounded=0;whiteSpace=wrap;html=1;" parent="1" vertex="1">
          <mxGeometry x="120" y="430" width="80" height="60" as="geometry" />
        </mxCell>
        <mxCell id="diJnBNYQxWLbvn7wu5tV-41" value="&lt;font style=&quot;font-size: 20px;&quot;&gt;μ&lt;/font&gt;&lt;font style=&quot;font-size: 10px;&quot;&gt;1&lt;/font&gt;" style="ellipse;whiteSpace=wrap;html=1;aspect=fixed;" parent="1" vertex="1">
          <mxGeometry x="200" y="425" width="70" height="70" as="geometry" />
        </mxCell>
        <mxCell id="diJnBNYQxWLbvn7wu5tV-42" value="" style="rounded=0;whiteSpace=wrap;html=1;" parent="1" vertex="1">
          <mxGeometry x="120" y="430" width="80" height="10" as="geometry" />
        </mxCell>
        <mxCell id="diJnBNYQxWLbvn7wu5tV-43" value="" style="rounded=0;whiteSpace=wrap;html=1;" parent="1" vertex="1">
          <mxGeometry x="120" y="440" width="80" height="10" as="geometry" />
        </mxCell>
        <mxCell id="diJnBNYQxWLbvn7wu5tV-44" value="" style="rounded=0;whiteSpace=wrap;html=1;" parent="1" vertex="1">
          <mxGeometry x="120" y="450" width="80" height="10" as="geometry" />
        </mxCell>
        <mxCell id="diJnBNYQxWLbvn7wu5tV-45" value="" style="rounded=0;whiteSpace=wrap;html=1;" parent="1" vertex="1">
          <mxGeometry x="120" y="460" width="80" height="10" as="geometry" />
        </mxCell>
        <mxCell id="diJnBNYQxWLbvn7wu5tV-46" value="" style="rounded=0;whiteSpace=wrap;html=1;" parent="1" vertex="1">
          <mxGeometry x="120" y="470" width="80" height="10" as="geometry" />
        </mxCell>
        <mxCell id="diJnBNYQxWLbvn7wu5tV-47" value="" style="rounded=0;whiteSpace=wrap;html=1;" parent="1" vertex="1">
          <mxGeometry x="385" y="430" width="80" height="60" as="geometry" />
        </mxCell>
        <mxCell id="diJnBNYQxWLbvn7wu5tV-48" style="edgeStyle=orthogonalEdgeStyle;rounded=0;orthogonalLoop=1;jettySize=auto;html=1;exitX=1;exitY=0.5;exitDx=0;exitDy=0;entryX=0;entryY=0;entryDx=0;entryDy=0;" parent="1" source="diJnBNYQxWLbvn7wu5tV-49" target="diJnBNYQxWLbvn7wu5tV-45" edge="1">
          <mxGeometry relative="1" as="geometry">
            <Array as="points">
              <mxPoint x="600" y="460" />
              <mxPoint x="600" y="360" />
              <mxPoint x="80" y="360" />
              <mxPoint x="80" y="460" />
            </Array>
          </mxGeometry>
        </mxCell>
        <mxCell id="diJnBNYQxWLbvn7wu5tV-49" value="&lt;font style=&quot;font-size: 20px;&quot;&gt;μ&lt;/font&gt;&lt;font style=&quot;font-size: 10px;&quot;&gt;2&lt;/font&gt;" style="ellipse;whiteSpace=wrap;html=1;aspect=fixed;" parent="1" vertex="1">
          <mxGeometry x="465" y="425" width="70" height="70" as="geometry" />
        </mxCell>
        <mxCell id="diJnBNYQxWLbvn7wu5tV-50" value="" style="rounded=0;whiteSpace=wrap;html=1;" parent="1" vertex="1">
          <mxGeometry x="455" y="430" width="10" height="60" as="geometry" />
        </mxCell>
        <mxCell id="diJnBNYQxWLbvn7wu5tV-51" value="" style="rounded=0;whiteSpace=wrap;html=1;" parent="1" vertex="1">
          <mxGeometry x="445" y="430" width="10" height="60" as="geometry" />
        </mxCell>
        <mxCell id="diJnBNYQxWLbvn7wu5tV-52" value="" style="rounded=0;whiteSpace=wrap;html=1;" parent="1" vertex="1">
          <mxGeometry x="435" y="430" width="10" height="60" as="geometry" />
        </mxCell>
        <mxCell id="diJnBNYQxWLbvn7wu5tV-53" value="" style="rounded=0;whiteSpace=wrap;html=1;" parent="1" vertex="1">
          <mxGeometry x="425" y="430" width="10" height="60" as="geometry" />
        </mxCell>
        <mxCell id="diJnBNYQxWLbvn7wu5tV-54" value="" style="rounded=0;whiteSpace=wrap;html=1;" parent="1" vertex="1">
          <mxGeometry x="415" y="430" width="10" height="60" as="geometry" />
        </mxCell>
        <mxCell id="diJnBNYQxWLbvn7wu5tV-55" value="" style="rounded=0;whiteSpace=wrap;html=1;" parent="1" vertex="1">
          <mxGeometry x="405" y="430" width="10" height="60" as="geometry" />
        </mxCell>
        <mxCell id="diJnBNYQxWLbvn7wu5tV-56" value="" style="rounded=0;whiteSpace=wrap;html=1;" parent="1" vertex="1">
          <mxGeometry x="395" y="430" width="10" height="60" as="geometry" />
        </mxCell>
        <mxCell id="diJnBNYQxWLbvn7wu5tV-57" value="" style="endArrow=classic;html=1;rounded=0;exitX=1;exitY=0.5;exitDx=0;exitDy=0;entryX=0;entryY=0.5;entryDx=0;entryDy=0;" parent="1" source="diJnBNYQxWLbvn7wu5tV-41" edge="1" target="diJnBNYQxWLbvn7wu5tV-47">
          <mxGeometry width="50" height="50" relative="1" as="geometry">
            <mxPoint x="390" y="690" as="sourcePoint" />
            <mxPoint x="350" y="460" as="targetPoint" />
          </mxGeometry>
        </mxCell>
        <mxCell id="diJnBNYQxWLbvn7wu5tV-60" value="" style="endArrow=classic;html=1;rounded=0;" parent="1" edge="1">
          <mxGeometry width="50" height="50" relative="1" as="geometry">
            <mxPoint x="300" y="460" as="sourcePoint" />
            <mxPoint x="300" y="540" as="targetPoint" />
          </mxGeometry>
        </mxCell>
        <mxCell id="diJnBNYQxWLbvn7wu5tV-61" value="&lt;font style=&quot;font-size: 17px;&quot;&gt;P&lt;/font&gt;&lt;font size=&quot;1&quot;&gt;c&lt;/font&gt;" style="text;html=1;align=center;verticalAlign=middle;resizable=0;points=[];autosize=1;strokeColor=none;fillColor=none;" parent="1" vertex="1">
          <mxGeometry x="300" y="430" width="40" height="30" as="geometry" />
        </mxCell>
        <mxCell id="diJnBNYQxWLbvn7wu5tV-62" value="&lt;font style=&quot;font-size: 14px;&quot;&gt;Edge node&lt;/font&gt;" style="text;html=1;align=center;verticalAlign=middle;resizable=0;points=[];autosize=1;strokeColor=none;fillColor=none;" parent="1" vertex="1">
          <mxGeometry x="195" y="388" width="90" height="30" as="geometry" />
        </mxCell>
        <mxCell id="diJnBNYQxWLbvn7wu5tV-63" value="&lt;font style=&quot;font-size: 14px;&quot;&gt;Cloud VM&lt;/font&gt;" style="text;html=1;align=center;verticalAlign=middle;resizable=0;points=[];autosize=1;strokeColor=none;fillColor=none;" parent="1" vertex="1">
          <mxGeometry x="460" y="388" width="80" height="30" as="geometry" />
        </mxCell>
        <mxCell id="diJnBNYQxWLbvn7wu5tV-66" value="" style="endArrow=none;html=1;rounded=0;" parent="1" edge="1">
          <mxGeometry width="50" height="50" relative="1" as="geometry">
            <mxPoint x="10" y="460" as="sourcePoint" />
            <mxPoint x="10" y="395" as="targetPoint" />
          </mxGeometry>
        </mxCell>
        <mxCell id="diJnBNYQxWLbvn7wu5tV-67" value="" style="endArrow=none;html=1;rounded=0;" parent="1" edge="1">
          <mxGeometry width="50" height="50" relative="1" as="geometry">
            <mxPoint x="80" y="460" as="sourcePoint" />
            <mxPoint x="10" y="460" as="targetPoint" />
          </mxGeometry>
        </mxCell>
        <mxCell id="diJnBNYQxWLbvn7wu5tV-68" value="" style="endArrow=none;dashed=1;html=1;dashPattern=1 3;strokeWidth=2;rounded=0;" parent="1" edge="1">
          <mxGeometry width="50" height="50" relative="1" as="geometry">
            <mxPoint x="360" y="320" as="sourcePoint" />
            <mxPoint x="360" y="240" as="targetPoint" />
          </mxGeometry>
        </mxCell>
        <mxCell id="diJnBNYQxWLbvn7wu5tV-69" value="" style="endArrow=none;dashed=1;html=1;dashPattern=1 3;strokeWidth=2;rounded=0;" parent="1" edge="1">
          <mxGeometry width="50" height="50" relative="1" as="geometry">
            <mxPoint x="10" y="390" as="sourcePoint" />
            <mxPoint x="10" y="280" as="targetPoint" />
          </mxGeometry>
        </mxCell>
        <mxCell id="diJnBNYQxWLbvn7wu5tV-70" value="&lt;font style=&quot;text-wrap-mode: wrap; font-size: 20px;&quot;&gt;λ&lt;/font&gt;&lt;font style=&quot;text-wrap-mode: wrap; font-size: 10px;&quot;&gt;i&lt;/font&gt;" style="text;html=1;align=center;verticalAlign=middle;resizable=0;points=[];autosize=1;strokeColor=none;fillColor=none;" parent="1" vertex="1">
          <mxGeometry x="10" y="143" width="40" height="40" as="geometry" />
        </mxCell>
        <mxCell id="diJnBNYQxWLbvn7wu5tV-71" value="&lt;font style=&quot;text-wrap-mode: wrap; font-size: 20px;&quot;&gt;λ&lt;/font&gt;&lt;font style=&quot;text-wrap-mode: wrap; font-size: 10px;&quot;&gt;i&lt;/font&gt;" style="text;html=1;align=center;verticalAlign=middle;resizable=0;points=[];autosize=1;strokeColor=none;fillColor=none;" parent="1" vertex="1">
          <mxGeometry x="10" y="423" width="40" height="40" as="geometry" />
        </mxCell>
        <mxCell id="diJnBNYQxWLbvn7wu5tV-72" value="&lt;font style=&quot;text-wrap-mode: wrap; font-size: 20px;&quot;&gt;λ&lt;/font&gt;" style="text;html=1;align=center;verticalAlign=middle;resizable=0;points=[];autosize=1;strokeColor=none;fillColor=none;" parent="1" vertex="1">
          <mxGeometry x="-75" y="243" width="30" height="40" as="geometry" />
        </mxCell>
        <mxCell id="diJnBNYQxWLbvn7wu5tV-74" value="&lt;font style=&quot;font-size: 14px;&quot;&gt;Block i&lt;/font&gt;" style="text;html=1;align=center;verticalAlign=middle;resizable=0;points=[];autosize=1;strokeColor=none;fillColor=none;" parent="1" vertex="1">
          <mxGeometry x="10" y="40" width="60" height="30" as="geometry" />
        </mxCell>
      </root>
    </mxGraphModel>
  </diagram>
</mxfile>
